<?xml version="1.0" encoding="UTF-8" standalone="no"?>
<!-- Created with Inkscape (http://www.inkscape.org/) -->

<svg
   width="200mm"
   height="150mm"
   viewBox="0 0 200 150"
   version="1.1"
   id="svg1"
   inkscape:version="1.4.2 (ebf0e940d0, 2025-05-08)"
   sodipodi:docname="server.svg"
   xmlns:inkscape="http://www.inkscape.org/namespaces/inkscape"
   xmlns:sodipodi="http://sodipodi.sourceforge.net/DTD/sodipodi-0.dtd"
   xmlns="http://www.w3.org/2000/svg"
   xmlns:svg="http://www.w3.org/2000/svg">
  <sodipodi:namedview
     id="namedview1"
     pagecolor="#ffffff"
     bordercolor="#000000"
     borderopacity="0.25"
     inkscape:showpageshadow="2"
     inkscape:pageopacity="0.0"
     inkscape:pagecheckerboard="0"
     inkscape:deskcolor="#d1d1d1"
     inkscape:document-units="mm"
     showgrid="true"
     inkscape:zoom="1.0942886"
     inkscape:cx="281.91831"
     inkscape:cy="310.24721"
     inkscape:window-width="1908"
     inkscape:window-height="1143"
     inkscape:window-x="0"
     inkscape:window-y="0"
     inkscape:window-maximized="1"
     inkscape:current-layer="layer1">
    <inkscape:grid
       id="grid1"
       units="mm"
       originx="0"
       originy="0"
       spacingx="0.99999999"
       spacingy="0.99999999"
       empcolor="#0099e5"
       empopacity="0.30196078"
       color="#0099e5"
       opacity="0.14901961"
       empspacing="5"
       enabled="true"
       visible="true" />
    <sodipodi:guide
       position="0,150"
       orientation="0,755.90551"
       id="guide4"
       inkscape:locked="false" />
    <sodipodi:guide
       position="200,150"
       orientation="566.92913,0"
       id="guide5"
       inkscape:locked="false" />
    <sodipodi:guide
       position="200,0"
       orientation="0,-755.90551"
       id="guide6"
       inkscape:locked="false" />
    <sodipodi:guide
       position="100,74.999999"
       orientation="-566.92913,0"
       id="guide7"
       inkscape:locked="false" />
  </sodipodi:namedview>
  <defs
     id="defs1">
    <inkscape:path-effect
       effect="powerclip"
       message=""
       id="path-effect6"
       is_visible="true"
       lpeversion="1"
       inverse="true"
       flatten="false"
       hide_clip="false" />
    <inkscape:path-effect
       effect="powerclip"
       message=""
       id="path-effect8"
       is_visible="true"
       lpeversion="1"
       inverse="true"
       flatten="false"
       hide_clip="false" />
    <clipPath
       clipPathUnits="userSpaceOnUse"
       id="clipPath8">
      <circle
         style="display:none;fill:#333333;fill-opacity:1;stroke:none;stroke-width:20;stroke-linejoin:bevel"
         id="circle8"
         cx="17.5"
         cy="32.5"
         r="2.5" />
    </clipPath>
    <clipPath
       clipPathUnits="userSpaceOnUse"
       id="clipPath5">
      <path
         id="path6"
         style="display:none;fill:#d4d4d4;stroke:#000000;stroke-width:0.310367;stroke-linecap:round;stroke-linejoin:round;stroke-opacity:1"
         d="m 25.000024,19.999813 v 2.990515 h 12.886037 v -2.990515 z m 16.107545,0 v 2.990515 h 12.885518 v -2.990515 z m 16.107026,0 v 2.990515 h 12.886037 v -2.990515 z m -32.214571,5.980513 v 2.990514 h 12.886037 v -2.990514 z m 16.107545,0 v 2.990514 h 12.885518 v -2.990514 z m 16.107026,0 v 2.990514 h 12.886037 v -2.990514 z m -32.214571,5.980515 v 2.989998 h 12.886037 v -2.989998 z m 16.107545,0 v 2.989998 h 12.885518 v -2.989998 z m 16.107026,0 v 2.989998 h 12.886037 v -2.989998 z" />
      <path
         id="lpe_path-effect6"
         style="fill:#d4d4d4;stroke:#000000;stroke-width:0.310367;stroke-linecap:round;stroke-linejoin:round;stroke-opacity:1"
         class="powerclip"
         d="m 14.75,9.7500001 h 170.5 V 55.25 H 14.75 Z M 25.000024,19.999813 v 2.990515 h 12.886037 v -2.990515 z m 16.107545,0 v 2.990515 h 12.885518 v -2.990515 z m 16.107026,0 v 2.990515 h 12.886037 v -2.990515 z m -32.214571,5.980513 v 2.990514 h 12.886037 v -2.990514 z m 16.107545,0 v 2.990514 h 12.885518 v -2.990514 z m 16.107026,0 v 2.990514 h 12.886037 v -2.990514 z m -32.214571,5.980515 v 2.989998 h 12.886037 v -2.989998 z m 16.107545,0 v 2.989998 h 12.885518 v -2.989998 z m 16.107026,0 v 2.989998 h 12.886037 v -2.989998 z" />
    </clipPath>
    <clipPath
       clipPathUnits="userSpaceOnUse"
       id="clipPath5-3">
      <path
         id="path6-2"
         style="display:none;fill:#d4d4d4;stroke:#000000;stroke-width:0.310367;stroke-linecap:round;stroke-linejoin:round;stroke-opacity:1"
         d="m 25.000024,19.999813 v 2.990515 h 12.886037 v -2.990515 z m 16.107545,0 v 2.990515 h 12.885518 v -2.990515 z m 16.107026,0 v 2.990515 h 12.886037 v -2.990515 z m -32.214571,5.980513 v 2.990514 h 12.886037 v -2.990514 z m 16.107545,0 v 2.990514 h 12.885518 v -2.990514 z m 16.107026,0 v 2.990514 h 12.886037 v -2.990514 z m -32.214571,5.980515 v 2.989998 h 12.886037 v -2.989998 z m 16.107545,0 v 2.989998 h 12.885518 v -2.989998 z m 16.107026,0 v 2.989998 h 12.886037 v -2.989998 z" />
      <path
         id="lpe_path-effect6-0"
         style="fill:#d4d4d4;stroke:#000000;stroke-width:0.310367;stroke-linecap:round;stroke-linejoin:round;stroke-opacity:1"
         class="powerclip"
         d="M 15,10 H 185 V 55 H 15 Z m 10.000024,9.999813 v 2.990515 h 12.886037 v -2.990515 z m 16.107545,0 v 2.990515 h 12.885518 v -2.990515 z m 16.107026,0 v 2.990515 h 12.886037 v -2.990515 z m -32.214571,5.980513 v 2.990514 h 12.886037 v -2.990514 z m 16.107545,0 v 2.990514 h 12.885518 v -2.990514 z m 16.107026,0 v 2.990514 h 12.886037 v -2.990514 z m -32.214571,5.980515 v 2.989998 h 12.886037 v -2.989998 z m 16.107545,0 v 2.989998 h 12.885518 v -2.989998 z m 16.107026,0 v 2.989998 h 12.886037 v -2.989998 z" />
    </clipPath>
    <inkscape:path-effect
       effect="powerclip"
       message=""
       id="path-effect6-6"
       is_visible="true"
       lpeversion="1"
       inverse="true"
       flatten="false"
       hide_clip="false" />
    <clipPath
       clipPathUnits="userSpaceOnUse"
       id="clipath_lpe_path-effect6-6">
      <path
         id="path19"
         style="display:none;fill:#d4d4d4;stroke:#000000;stroke-width:0.310367;stroke-linecap:round;stroke-linejoin:round;stroke-opacity:1"
         d="m 25.000024,19.999813 v 2.990515 h 12.886037 v -2.990515 z m 16.107545,0 v 2.990515 h 12.885518 v -2.990515 z m 16.107026,0 v 2.990515 h 12.886037 v -2.990515 z m -32.214571,5.980513 v 2.990514 h 12.886037 v -2.990514 z m 16.107545,0 v 2.990514 h 12.885518 v -2.990514 z m 16.107026,0 v 2.990514 h 12.886037 v -2.990514 z m -32.214571,5.980515 v 2.989998 h 12.886037 v -2.989998 z m 16.107545,0 v 2.989998 h 12.885518 v -2.989998 z m 16.107026,0 v 2.989998 h 12.886037 v -2.989998 z" />
      <path
         id="lpe_path-effect6-6"
         style="fill:#d4d4d4;stroke:#000000;stroke-width:0.310367;stroke-linecap:round;stroke-linejoin:round;stroke-opacity:1"
         class="powerclip"
         d="m 14.75,9.7500001 h 170.5 V 55.25 H 14.75 Z M 25.000024,19.999813 v 2.990515 h 12.886037 v -2.990515 z m 16.107545,0 v 2.990515 h 12.885518 v -2.990515 z m 16.107026,0 v 2.990515 h 12.886037 v -2.990515 z m -32.214571,5.980513 v 2.990514 h 12.886037 v -2.990514 z m 16.107545,0 v 2.990514 h 12.885518 v -2.990514 z m 16.107026,0 v 2.990514 h 12.886037 v -2.990514 z m -32.214571,5.980515 v 2.989998 h 12.886037 v -2.989998 z m 16.107545,0 v 2.989998 h 12.885518 v -2.989998 z m 16.107026,0 v 2.989998 h 12.886037 v -2.989998 z" />
    </clipPath>
    <clipPath
       clipPathUnits="userSpaceOnUse"
       id="clipath_lpe_path-effect6-6-9">
      <path
         id="path19-3"
         style="display:none;fill:#d4d4d4;stroke:#000000;stroke-width:0.310367;stroke-linecap:round;stroke-linejoin:round;stroke-opacity:1"
         d="m 25.000024,19.999813 v 2.990515 h 12.886037 v -2.990515 z m 16.107545,0 v 2.990515 h 12.885518 v -2.990515 z m 16.107026,0 v 2.990515 h 12.886037 v -2.990515 z m -32.214571,5.980513 v 2.990514 h 12.886037 v -2.990514 z m 16.107545,0 v 2.990514 h 12.885518 v -2.990514 z m 16.107026,0 v 2.990514 h 12.886037 v -2.990514 z m -32.214571,5.980515 v 2.989998 h 12.886037 v -2.989998 z m 16.107545,0 v 2.989998 h 12.885518 v -2.989998 z m 16.107026,0 v 2.989998 h 12.886037 v -2.989998 z" />
      <path
         id="lpe_path-effect6-6-7"
         style="fill:#d4d4d4;stroke:#000000;stroke-width:0.310367;stroke-linecap:round;stroke-linejoin:round;stroke-opacity:1"
         class="powerclip"
         d="M 15,10 H 185 V 55 H 15 Z m 10.000024,9.999813 v 2.990515 h 12.886037 v -2.990515 z m 16.107545,0 v 2.990515 h 12.885518 v -2.990515 z m 16.107026,0 v 2.990515 h 12.886037 v -2.990515 z m -32.214571,5.980513 v 2.990514 h 12.886037 v -2.990514 z m 16.107545,0 v 2.990514 h 12.885518 v -2.990514 z m 16.107026,0 v 2.990514 h 12.886037 v -2.990514 z m -32.214571,5.980515 v 2.989998 h 12.886037 v -2.989998 z m 16.107545,0 v 2.989998 h 12.885518 v -2.989998 z m 16.107026,0 v 2.989998 h 12.886037 v -2.989998 z" />
    </clipPath>
    <inkscape:path-effect
       effect="powerclip"
       message=""
       id="path-effect6-6-4"
       is_visible="true"
       lpeversion="1"
       inverse="true"
       flatten="false"
       hide_clip="false" />
    <clipPath
       clipPathUnits="userSpaceOnUse"
       id="clipath_lpe_path-effect6-6-4">
      <path
         id="path20"
         style="display:none;fill:#d4d4d4;stroke:#000000;stroke-width:0.310367;stroke-linecap:round;stroke-linejoin:round;stroke-opacity:1"
         d="m 25.000024,19.999813 v 2.990515 h 12.886037 v -2.990515 z m 16.107545,0 v 2.990515 h 12.885518 v -2.990515 z m 16.107026,0 v 2.990515 h 12.886037 v -2.990515 z m -32.214571,5.980513 v 2.990514 h 12.886037 v -2.990514 z m 16.107545,0 v 2.990514 h 12.885518 v -2.990514 z m 16.107026,0 v 2.990514 h 12.886037 v -2.990514 z m -32.214571,5.980515 v 2.989998 h 12.886037 v -2.989998 z m 16.107545,0 v 2.989998 h 12.885518 v -2.989998 z m 16.107026,0 v 2.989998 h 12.886037 v -2.989998 z" />
      <path
         id="lpe_path-effect6-6-4"
         style="fill:#d4d4d4;stroke:#000000;stroke-width:0.310367;stroke-linecap:round;stroke-linejoin:round;stroke-opacity:1"
         class="powerclip"
         d="m 14.75,9.7500001 h 170.5 V 55.25 H 14.75 Z M 25.000024,19.999813 v 2.990515 h 12.886037 v -2.990515 z m 16.107545,0 v 2.990515 h 12.885518 v -2.990515 z m 16.107026,0 v 2.990515 h 12.886037 v -2.990515 z m -32.214571,5.980513 v 2.990514 h 12.886037 v -2.990514 z m 16.107545,0 v 2.990514 h 12.885518 v -2.990514 z m 16.107026,0 v 2.990514 h 12.886037 v -2.990514 z m -32.214571,5.980515 v 2.989998 h 12.886037 v -2.989998 z m 16.107545,0 v 2.989998 h 12.885518 v -2.989998 z m 16.107026,0 v 2.989998 h 12.886037 v -2.989998 z" />
    </clipPath>
  </defs>
  <g
     inkscape:label="Layer 1"
     inkscape:groupmode="layer"
     id="layer1">
    <path
       style="fill:#333333;fill-opacity:1;stroke:#ffffff;stroke-width:0.499999;stroke-linecap:round;stroke-linejoin:round;stroke-opacity:1"
       d="M 20,44.999999 V 20 c 0,0 0,-5 5,-5 5,0 150,0 150,0 0,0 5,0 5,5 0,5 0,24.999999 0,24.999999 0,0 0,5.000001 -5,5.000001 -5,0 -150,0 -150,0 0,0 -5,0 -5,-5.000001 z"
       id="path5"
       clip-path="url(#clipPath5)"
       inkscape:path-effect="#path-effect6"
       inkscape:original-d="M 20,44.999999 V 20 c 0,0 0,-5 5,-5 5,0 150,0 150,0 0,0 5,0 5,5 0,5 0,24.999999 0,24.999999 0,0 0,5.000001 -5,5.000001 -5,0 -150,0 -150,0 0,0 -5,0 -5,-5.000001 z"
       transform="matrix(1.1828023,0,0,1.1828023,-18.28023,-4.328484)" />
    <path
       id="path9"
       style="fill:#ff5252;fill-opacity:1;stroke:none;stroke-width:0.591399;stroke-linecap:round;stroke-linejoin:round;stroke-opacity:1"
       d="m 144.35525,42.983776 a 2.9570057,2.9570057 0 0 0 -2.95714,2.957132 2.9570057,2.9570057 0 0 0 2.95714,2.956519 2.9570057,2.9570057 0 0 0 2.95713,-2.956519 2.9570057,2.9570057 0 0 0 -2.95713,-2.957132 z m 11.82791,0 a 2.9570057,2.9570057 0 0 0 -2.95713,2.957132 2.9570057,2.9570057 0 0 0 2.95713,2.956519 2.9570057,2.9570057 0 0 0 2.95714,-2.956519 2.9570057,2.9570057 0 0 0 -2.95714,-2.957132 z m 11.82791,0 a 2.9570057,2.9570057 0 0 0 -2.95712,2.957132 2.9570057,2.9570057 0 0 0 2.95712,2.956519 2.9570057,2.9570057 0 0 0 2.95713,-2.956519 2.9570057,2.9570057 0 0 0 -2.95713,-2.957132 z m 11.82791,0 a 2.9570057,2.9570057 0 0 0 -2.95713,2.957132 2.9570057,2.9570057 0 0 0 2.95713,2.956519 2.9570057,2.9570057 0 0 0 2.95714,-2.956519 2.9570057,2.9570057 0 0 0 -2.95714,-2.957132 z" />
    <path
       id="path9-1"
       style="fill:#06dc00;fill-opacity:1;stroke:none;stroke-width:0.591399;stroke-linecap:round;stroke-linejoin:round;stroke-opacity:1"
       d="m 144.35506,34.112465 a 2.9570057,2.9570057 0 0 0 -2.95712,2.957132 2.9570057,2.9570057 0 0 0 2.95712,2.95652 2.9570057,2.9570057 0 0 0 2.95714,-2.95652 2.9570057,2.9570057 0 0 0 -2.95714,-2.957132 z m 11.82792,0 a 2.9570057,2.9570057 0 0 0 -2.95713,2.957132 2.9570057,2.9570057 0 0 0 2.95713,2.95652 2.9570057,2.9570057 0 0 0 2.95714,-2.95652 2.9570057,2.9570057 0 0 0 -2.95714,-2.957132 z m 11.82792,0 a 2.9570057,2.9570057 0 0 0 -2.95714,2.957132 2.9570057,2.9570057 0 0 0 2.95714,2.95652 2.9570057,2.9570057 0 0 0 2.95712,-2.95652 2.9570057,2.9570057 0 0 0 -2.95712,-2.957132 z m 11.8279,0 a 2.9570057,2.9570057 0 0 0 -2.95712,2.957132 2.9570057,2.9570057 0 0 0 2.95712,2.95652 2.9570057,2.9570057 0 0 0 2.95714,-2.95652 2.9570057,2.9570057 0 0 0 -2.95714,-2.957132 z" />
    <path
       style="fill:#333333;fill-opacity:1;stroke:#ffffff;stroke-width:0.499999;stroke-linecap:round;stroke-linejoin:round;stroke-opacity:1"
       d="M 20,44.999999 V 20 c 0,0 0,-5 5,-5 5,0 150,0 150,0 0,0 5,0 5,5 0,5 0,24.999999 0,24.999999 0,0 0,5.000001 -5,5.000001 -5,0 -150,0 -150,0 0,0 -5,0 -5,-5.000001 z"
       id="path5-5"
       clip-path="url(#clipath_lpe_path-effect6-6)"
       inkscape:path-effect="#path-effect6-6"
       inkscape:original-d="M 20,44.999999 V 20 c 0,0 0,-5 5,-5 5,0 150,0 150,0 0,0 5,0 5,5 0,5 0,24.999999 0,24.999999 0,0 0,5.000001 -5,5.000001 -5,0 -150,0 -150,0 0,0 -5,0 -5,-5.000001 z"
       transform="matrix(1.1828023,0,0,1.1828023,-18.280265,37.069791)" />
    <path
       id="path9-7"
       style="fill:#ff5252;fill-opacity:1;stroke:none;stroke-width:0.591399;stroke-linecap:round;stroke-linejoin:round;stroke-opacity:1"
       d="m 144.3552,84.382051 a 2.9570057,2.9570057 0 0 0 -2.95712,2.957131 2.9570057,2.9570057 0 0 0 2.95712,2.956519 2.9570057,2.9570057 0 0 0 2.95715,-2.956519 2.9570057,2.9570057 0 0 0 -2.95715,-2.957131 z m 11.82793,0 a 2.9570057,2.9570057 0 0 0 -2.95714,2.957131 2.9570057,2.9570057 0 0 0 2.95714,2.956519 2.9570057,2.9570057 0 0 0 2.95714,-2.956519 2.9570057,2.9570057 0 0 0 -2.95714,-2.957131 z m 11.82791,0 a 2.9570057,2.9570057 0 0 0 -2.95713,2.957131 2.9570057,2.9570057 0 0 0 2.95713,2.956519 2.9570057,2.9570057 0 0 0 2.95712,-2.956519 2.9570057,2.9570057 0 0 0 -2.95712,-2.957131 z m 11.8279,0 a 2.9570057,2.9570057 0 0 0 -2.95712,2.957131 2.9570057,2.9570057 0 0 0 2.95712,2.956519 2.9570057,2.9570057 0 0 0 2.95714,-2.956519 2.9570057,2.9570057 0 0 0 -2.95714,-2.957131 z" />
    <path
       id="path9-1-6"
       style="fill:#06dc00;fill-opacity:1;stroke:none;stroke-width:0.591399;stroke-linecap:round;stroke-linejoin:round;stroke-opacity:1"
       d="m 144.35503,75.510741 a 2.9570057,2.9570057 0 0 0 -2.95712,2.95713 2.9570057,2.9570057 0 0 0 2.95712,2.95652 2.9570057,2.9570057 0 0 0 2.95714,-2.95652 2.9570057,2.9570057 0 0 0 -2.95714,-2.95713 z m 11.82792,0 a 2.9570057,2.9570057 0 0 0 -2.95714,2.95713 2.9570057,2.9570057 0 0 0 2.95714,2.95652 2.9570057,2.9570057 0 0 0 2.95712,-2.95652 2.9570057,2.9570057 0 0 0 -2.95712,-2.95713 z m 11.82791,0 a 2.9570057,2.9570057 0 0 0 -2.95713,2.95713 2.9570057,2.9570057 0 0 0 2.95713,2.95652 2.9570057,2.9570057 0 0 0 2.95713,-2.95652 2.9570057,2.9570057 0 0 0 -2.95713,-2.95713 z m 11.82791,0 a 2.9570057,2.9570057 0 0 0 -2.95713,2.95713 2.9570057,2.9570057 0 0 0 2.95713,2.95652 2.9570057,2.9570057 0 0 0 2.95714,-2.95652 2.9570057,2.9570057 0 0 0 -2.95714,-2.95713 z" />
    <path
       style="fill:#333333;fill-opacity:1;stroke:#ffffff;stroke-width:0.499999;stroke-linecap:round;stroke-linejoin:round;stroke-opacity:1"
       d="M 20,44.999999 V 20 c 0,0 0,-5 5,-5 5,0 150,0 150,0 0,0 5,0 5,5 0,5 0,24.999999 0,24.999999 0,0 0,5.000001 -5,5.000001 -5,0 -150,0 -150,0 0,0 -5,0 -5,-5.000001 z"
       id="path5-5-5"
       clip-path="url(#clipath_lpe_path-effect6-6-4)"
       inkscape:path-effect="#path-effect6-6-4"
       inkscape:original-d="M 20,44.999999 V 20 c 0,0 0,-5 5,-5 5,0 150,0 150,0 0,0 5,0 5,5 0,5 0,24.999999 0,24.999999 0,0 0,5.000001 -5,5.000001 -5,0 -150,0 -150,0 0,0 -5,0 -5,-5.000001 z"
       transform="matrix(1.1828023,0,0,1.1828023,-18.280229,78.467678)" />
    <path
       id="path9-7-7"
       style="fill:#ff5252;fill-opacity:1;stroke:none;stroke-width:0.591399;stroke-linecap:round;stroke-linejoin:round;stroke-opacity:1"
       d="m 144.35525,125.77994 a 2.9570057,2.9570057 0 0 0 -2.95714,2.95713 2.9570057,2.9570057 0 0 0 2.95714,2.95653 2.9570057,2.9570057 0 0 0 2.95713,-2.95653 2.9570057,2.9570057 0 0 0 -2.95713,-2.95713 z m 11.82791,0 a 2.9570057,2.9570057 0 0 0 -2.95713,2.95713 2.9570057,2.9570057 0 0 0 2.95713,2.95653 2.9570057,2.9570057 0 0 0 2.95714,-2.95653 2.9570057,2.9570057 0 0 0 -2.95714,-2.95713 z m 11.82791,0 a 2.9570057,2.9570057 0 0 0 -2.95712,2.95713 2.9570057,2.9570057 0 0 0 2.95712,2.95653 2.9570057,2.9570057 0 0 0 2.95713,-2.95653 2.9570057,2.9570057 0 0 0 -2.95713,-2.95713 z m 11.82791,0 a 2.9570057,2.9570057 0 0 0 -2.95713,2.95713 2.9570057,2.9570057 0 0 0 2.95713,2.95653 2.9570057,2.9570057 0 0 0 2.95714,-2.95653 2.9570057,2.9570057 0 0 0 -2.95714,-2.95713 z" />
    <path
       id="path9-1-6-4"
       style="fill:#06dc00;fill-opacity:1;stroke:none;stroke-width:0.591399;stroke-linecap:round;stroke-linejoin:round;stroke-opacity:1"
       d="m 144.35506,116.90863 a 2.9570057,2.9570057 0 0 0 -2.95712,2.95713 2.9570057,2.9570057 0 0 0 2.95712,2.95653 2.9570057,2.9570057 0 0 0 2.95714,-2.95653 2.9570057,2.9570057 0 0 0 -2.95714,-2.95713 z m 11.82792,0 a 2.9570057,2.9570057 0 0 0 -2.95713,2.95713 2.9570057,2.9570057 0 0 0 2.95713,2.95653 2.9570057,2.9570057 0 0 0 2.95714,-2.95653 2.9570057,2.9570057 0 0 0 -2.95714,-2.95713 z m 11.82792,0 a 2.9570057,2.9570057 0 0 0 -2.95714,2.95713 2.9570057,2.9570057 0 0 0 2.95714,2.95653 2.9570057,2.9570057 0 0 0 2.95712,-2.95653 2.9570057,2.9570057 0 0 0 -2.95712,-2.95713 z m 11.8279,0 a 2.9570057,2.9570057 0 0 0 -2.95712,2.95713 2.9570057,2.9570057 0 0 0 2.95712,2.95653 2.9570057,2.9570057 0 0 0 2.95714,-2.95653 2.9570057,2.9570057 0 0 0 -2.95714,-2.95713 z" />
  </g>
</svg>
